<svg width="200" height="200" viewBox="0 0 200 200" fill="none" xmlns="http://www.w3.org/2000/svg">
<circle cx="100" cy="100" r="100" fill="white"/>
<path fill="black" d="M147.893 93.9222L60.5185 137.561C76.2213 146.323 102.714 157.715 103.504 157.89C104.135 158.03 104.527 158.007 104.644 157.978C116.575 155.086 146.05 137.648 146.577 137.035C147.103 136.422 147.191 136.159 147.717 135.107C148.138 134.266 148.361 131.777 148.419 130.638C149.682 114.024 148.595 99.2383 147.893 93.9222Z" />
<path fill="black" d="M103.328 56.7682C104.1 88.244 103.65 108.205 103.328 114.252C81.783 104.718 66.1036 95.2074 60.9571 91.6439C59.764 87.9986 59.9336 67.1082 60.1676 57.1187C60.2845 56.0087 60.7115 53.526 61.4835 52.4744C62.2554 51.4229 63.7351 50.4006 64.3784 50.0209C65.2205 49.39 67.7704 49.2322 68.9401 49.2322C76.8704 48.8116 88.9707 49.057 94.0295 49.2322C99.0123 49.1621 101.486 50.6051 102.1 51.3353C102.942 51.5456 103.27 55.0449 103.328 56.7682Z" />
</svg>
