<svg
	id="visual"
	viewBox="0 0 900 600"
	width="900"
	height="600"
	xmlns="http://www.w3.org/2000/svg"
	xmlns:xlink="http://www.w3.org/1999/xlink"
	version="1.1"
>

	<!-- <g transform="translate(900, 0)">
		<path d="M0 540.8C-56.4 536.1 -112.8 531.4 -167.1 514.4C-221.4 497.3 -273.6 468 -309.8 426.4C-345.9 384.7 -366.1 330.7 -391.6 284.5C-417 238.3 -447.9 200 -473.6 153.9C-499.4 107.8 -520.1 53.9 -540.8 0L0 0Z" fill="#002237"></path>
		<path d="M0 473.2C-49.4 469.1 -98.7 465 -146.2 450.1C-193.7 435.2 -239.4 409.5 -271 373.1C-302.7 336.6 -320.3 289.3 -342.6 248.9C-364.9 208.5 -391.9 175 -414.4 134.7C-437 94.3 -455.1 47.2 -473.2 0L0 0Z" fill="#003853"></path>
		<path d="M0 405.6C-42.3 402.1 -84.6 398.5 -125.3 385.8C-166.1 373 -205.2 351 -232.3 319.8C-259.4 288.5 -274.6 248 -293.7 213.4C-312.8 178.7 -335.9 150 -355.2 115.4C-374.5 80.8 -390.1 40.4 -405.6 0L0 0Z" fill="#00546f"></path>
		<path d="M0 338C-35.3 335.1 -70.5 332.1 -104.5 321.5C-138.4 310.8 -171 292.5 -193.6 266.5C-216.2 240.4 -228.8 206.7 -244.7 177.8C-260.7 148.9 -279.9 125 -296 96.2C-312.1 67.4 -325.1 33.7 -338 0L0 0Z" fill="#00718d"></path>
		<path d="M0 270.4C-28.2 268.1 -56.4 265.7 -83.6 257.2C-110.7 248.7 -136.8 234 -154.9 213.2C-173 192.3 -183 165.3 -195.8 142.2C-208.5 119.2 -223.9 100 -236.8 76.9C-249.7 53.9 -260.1 26.9 -270.4 0L0 0Z" fill="#008fad"></path>
		<path d="M0 202.8C-21.2 201 -42.3 199.3 -62.7 192.9C-83 186.5 -102.6 175.5 -116.2 159.9C-129.7 144.3 -137.3 124 -146.8 106.7C-156.4 89.4 -167.9 75 -177.6 57.7C-187.3 40.4 -195 20.2 -202.8 0L0 0Z" fill="#00afcd"></path>
		<path d="M0 135.2C-14.1 134 -28.2 132.8 -41.8 128.6C-55.4 124.3 -68.4 117 -77.4 106.6C-86.5 96.2 -91.5 82.7 -97.9 71.1C-104.3 59.6 -112 50 -118.4 38.5C-124.8 26.9 -130 13.5 -135.2 0L0 0Z" fill="#00cfee"></path>
		<path d="M0 67.6C-7.1 67 -14.1 66.4 -20.9 64.3C-27.7 62.2 -34.2 58.5 -38.7 53.3C-43.2 48.1 -45.8 41.3 -48.9 35.6C-52.1 29.8 -56 25 -59.2 19.2C-62.4 13.5 -65 6.7 -67.6 0L0 0Z" fill="#00e0ff"></path>
	</g> -->

	<g transform="translate(0, 600)">
		<path d="M0 -540.8C53.3 -523.3 106.7 -505.7 157.9 -486C209.1 -466.2 258.3 -444.3 300.4 -413.4C342.4 -382.5 377.4 -342.8 415 -301.5C452.7 -260.3 493 -217.6 514.4 -167.1C535.8 -116.6 538.3 -58.3 540.8 0L0 0Z" fill="#002237"></path>
		<path d="M0 -473.2C46.7 -457.9 93.3 -442.5 138.2 -425.2C183 -408 226 -388.7 262.8 -361.7C299.6 -334.7 330.2 -299.9 363.1 -263.8C396.1 -227.8 431.3 -190.4 450.1 -146.2C468.8 -102.1 471 -51 473.2 0L0 0Z" fill="#003853"></path>
		<path d="M0 -405.6C40 -392.5 80 -379.3 118.4 -364.5C156.9 -349.7 193.7 -333.2 225.3 -310.1C256.8 -286.9 283 -257.1 311.3 -226.2C339.5 -195.2 369.7 -163.2 385.8 -125.3C401.8 -87.5 403.7 -43.7 405.6 0L0 0Z" fill="#00546f"></path>
		<path d="M0 -338C33.3 -327.1 66.7 -316.1 98.7 -303.7C130.7 -291.4 161.4 -277.7 187.7 -258.4C214 -239.1 235.9 -214.2 259.4 -188.5C282.9 -162.7 308.1 -136 321.5 -104.5C334.9 -72.9 336.4 -36.4 338 0L0 0Z" fill="#00718d"></path>
		<path d="M0 -270.4C26.7 -261.6 53.3 -252.9 79 -243C104.6 -233.1 129.1 -222.1 150.2 -206.7C171.2 -191.3 188.7 -171.4 207.5 -150.8C226.3 -130.2 246.5 -108.8 257.2 -83.6C267.9 -58.3 269.2 -29.2 270.4 0L0 0Z" fill="#008fad"></path>
		<path d="M0 -202.8C20 -196.2 40 -189.7 59.2 -182.2C78.4 -174.8 96.9 -166.6 112.6 -155C128.4 -143.5 141.5 -128.5 155.6 -113.1C169.7 -97.6 184.9 -81.6 192.9 -62.7C200.9 -43.7 201.9 -21.9 202.8 0L0 0Z" fill="#00afcd"></path>
		<path d="M0 -135.2C13.3 -130.8 26.7 -126.4 39.5 -121.5C52.3 -116.6 64.6 -111.1 75.1 -103.4C85.6 -95.6 94.3 -85.7 103.8 -75.4C113.2 -65.1 123.2 -54.4 128.6 -41.8C133.9 -29.2 134.6 -14.6 135.2 0L0 0Z" fill="#00cfee"></path>
		<path d="M0 -67.6C6.7 -65.4 13.3 -63.2 19.7 -60.7C26.1 -58.3 32.3 -55.5 37.5 -51.7C42.8 -47.8 47.2 -42.8 51.9 -37.7C56.6 -32.5 61.6 -27.2 64.3 -20.9C67 -14.6 67.3 -7.3 67.6 0L0 0Z" fill="#00e0ff"></path>
	</g>
</svg>