<svg id="visual" viewBox="0 0 900 600" width="900" height="600" xmlns="http://www.w3.org/2000/svg" xmlns:xlink="http://www.w3.org/1999/xlink" version="1.1">

<g transform="translate(900, 0)">

    <path d="M0 513.8C-34.8 514.9 -69.6 516 -100.2 503.9C-130.9 491.9 -157.5 466.7 -186.7 450.9C-216 435 -247.9 428.5 -277.2 414.9C-306.5 401.3 -333.2 380.5 -357.8 357.8C-382.4 335.1 -404.9 310.6 -424 283.3C-443.2 256.1 -459.1 226.1 -470.3 194.8C-481.4 163.5 -487.8 131 -494.3 98.3C-500.8 65.7 -507.3 32.8 -513.8 0L0 0Z" fill="#f4fcff"></path>
    <path d="M0 449.6C-30.4 450.5 -60.9 451.5 -87.7 440.9C-114.6 430.4 -137.8 408.3 -163.4 394.5C-189 380.6 -216.9 375 -242.6 363C-268.2 351.1 -291.6 332.9 -313.1 313.1C-334.6 293.2 -354.3 271.8 -371 247.9C-387.8 224.1 -401.7 197.8 -411.5 170.4C-421.2 143.1 -426.9 114.6 -432.5 86C-438.2 57.4 -443.9 28.7 -449.6 0L0 0Z" fill="#def5ff"></path>
    <path d="M0 385.3C-26.1 386.2 -52.2 387 -75.2 377.9C-98.2 368.9 -118.1 350 -140.1 338.1C-162 326.3 -185.9 321.4 -207.9 311.2C-229.9 300.9 -249.9 285.3 -268.3 268.3C-286.8 251.3 -303.7 233 -318 212.5C-332.4 192.1 -344.3 169.5 -352.7 146.1C-361.1 122.6 -365.9 98.2 -370.7 73.7C-375.6 49.2 -380.5 24.6 -385.3 0L0 0Z" fill="#c6efff"></path><path d="M0 321.1C-21.7 321.8 -43.5 322.5 -62.6 314.9C-81.8 307.4 -98.4 291.7 -116.7 281.8C-135 271.9 -155 267.8 -173.3 259.3C-191.6 250.8 -208.3 237.8 -223.6 223.6C-239 209.5 -253 194.1 -265 177.1C-277 160 -286.9 141.3 -293.9 121.7C-300.9 102.2 -304.9 81.9 -308.9 61.5C-313 41 -317.1 20.5 -321.1 0L0 0Z" fill="#ade8ff"></path>
    <path d="M0 256.9C-17.4 257.4 -34.8 258 -50.1 252C-65.5 245.9 -78.7 233.3 -93.4 225.4C-108 217.5 -124 214.3 -138.6 207.5C-153.3 200.6 -166.6 190.2 -178.9 178.9C-191.2 167.6 -202.4 155.3 -212 141.7C-221.6 128 -229.6 113 -235.1 97.4C-240.7 81.8 -243.9 65.5 -247.2 49.2C-250.4 32.8 -253.6 16.4 -256.9 0L0 0Z" fill="#91e2ff"></path><path d="M0 192.7C-13 193.1 -26.1 193.5 -37.6 189C-49.1 184.5 -59.1 175 -70 169.1C-81 163.1 -93 160.7 -104 155.6C-114.9 150.5 -125 142.7 -134.2 134.2C-143.4 125.7 -151.8 116.5 -159 106.3C-166.2 96 -172.2 84.8 -176.3 73C-180.5 61.3 -182.9 49.1 -185.4 36.9C-187.8 24.6 -190.2 12.3 -192.7 0L0 0Z" fill="#6fdbff"></path>
    <path d="M0 128.4C-8.7 128.7 -17.4 129 -25.1 126C-32.7 123 -39.4 116.7 -46.7 112.7C-54 108.8 -62 107.1 -69.3 103.7C-76.6 100.3 -83.3 95.1 -89.4 89.4C-95.6 83.8 -101.2 77.7 -106 70.8C-110.8 64 -114.8 56.5 -117.6 48.7C-120.4 40.9 -122 32.7 -123.6 24.6C-125.2 16.4 -126.8 8.2 -128.4 0L0 0Z" fill="#3fd4ff"></path><path d="M0 64.2C-4.3 64.4 -8.7 64.5 -12.5 63C-16.4 61.5 -19.7 58.3 -23.3 56.4C-27 54.4 -31 53.6 -34.7 51.9C-38.3 50.2 -41.7 47.6 -44.7 44.7C-47.8 41.9 -50.6 38.8 -53 35.4C-55.4 32 -57.4 28.3 -58.8 24.3C-60.2 20.4 -61 16.4 -61.8 12.3C-62.6 8.2 -63.4 4.1 -64.2 0L0 0Z" fill="#00d1ff"></path>

</g>
<!-- 
<g transform="translate(0, 600)">

    <path d="M0 -513.8C32.7 -505 65.3 -496.3 96.8 -486.5C128.2 -476.7 158.4 -465.8 187.9 -453.6C217.4 -441.4 246 -427.8 276.7 -414.1C307.3 -400.3 339.9 -386.5 363.3 -363.3C386.7 -340.1 400.9 -307.6 414.9 -277.2C428.9 -246.8 442.9 -218.5 457.3 -189.4C471.8 -160.3 486.8 -130.4 496.3 -98.7C505.8 -67 509.8 -33.5 513.8 0L0 0Z" fill="#f4fcff"></path>
    <path d="M0 -449.6C28.6 -441.9 57.2 -434.2 84.7 -425.7C112.2 -417.1 138.6 -407.6 164.4 -396.9C190.2 -386.2 215.3 -374.3 242.1 -362.3C268.9 -350.3 297.4 -338.2 317.9 -317.9C338.4 -297.6 350.8 -269.2 363 -242.6C375.3 -216 387.5 -191.2 400.2 -165.7C412.8 -140.3 425.9 -114.1 434.2 -86.4C442.6 -58.6 446.1 -29.3 449.6 0L0 0Z" fill="#def5ff"></path><path d="M0 -385.3C24.5 -378.8 49 -372.2 72.6 -364.9C96.2 -357.5 118.8 -349.4 140.9 -340.2C163 -331.1 184.5 -320.9 207.5 -310.6C230.5 -300.3 254.9 -289.9 272.5 -272.5C290 -255.1 300.6 -230.7 311.2 -207.9C321.7 -185.1 332.1 -163.9 343 -142.1C353.8 -120.2 365.1 -97.8 372.2 -74C379.3 -50.3 382.3 -25.1 385.3 0L0 0Z" fill="#c6efff"></path><path d="M0 -321.1C20.4 -315.6 40.8 -310.2 60.5 -304C80.1 -297.9 99 -291.2 117.4 -283.5C135.8 -275.9 153.8 -267.4 172.9 -258.8C192.1 -250.2 212.4 -241.6 227.1 -227.1C241.7 -212.6 250.5 -192.3 259.3 -173.3C268.1 -154.3 276.8 -136.6 285.8 -118.4C294.9 -100.2 304.2 -81.5 310.2 -61.7C316.1 -41.9 318.6 -20.9 321.1 0L0 0Z" fill="#ade8ff"></path><path d="M0 -256.9C16.3 -252.5 32.7 -248.1 48.4 -243.2C64.1 -238.3 79.2 -232.9 93.9 -226.8C108.7 -220.7 123 -213.9 138.3 -207C153.7 -200.2 170 -193.2 181.7 -181.7C193.3 -170.1 200.4 -153.8 207.5 -138.6C214.5 -123.4 221.4 -109.3 228.7 -94.7C235.9 -80.2 243.4 -65.2 248.1 -49.4C252.9 -33.5 254.9 -16.8 256.9 0L0 0Z" fill="#91e2ff"></path><path d="M0 -192.7C12.2 -189.4 24.5 -186.1 36.3 -182.4C48.1 -178.8 59.4 -174.7 70.5 -170.1C81.5 -165.5 92.3 -160.4 103.8 -155.3C115.2 -150.1 127.5 -144.9 136.2 -136.2C145 -127.5 150.3 -115.4 155.6 -104C160.9 -92.6 166.1 -81.9 171.5 -71C176.9 -60.1 182.5 -48.9 186.1 -37C189.7 -25.1 191.2 -12.6 192.7 0L0 0Z" fill="#6fdbff"></path><path d="M0 -128.4C8.2 -126.3 16.3 -124.1 24.2 -121.6C32.1 -119.2 39.6 -116.5 47 -113.4C54.3 -110.4 61.5 -107 69.2 -103.5C76.8 -100.1 85 -96.6 90.8 -90.8C96.7 -85 100.2 -76.9 103.7 -69.3C107.2 -61.7 110.7 -54.6 114.3 -47.4C117.9 -40.1 121.7 -32.6 124.1 -24.7C126.4 -16.8 127.4 -8.4 128.4 0L0 0Z" fill="#3fd4ff"></path><path d="M0 -64.2C4.1 -63.1 8.2 -62 12.1 -60.8C16 -59.6 19.8 -58.2 23.5 -56.7C27.2 -55.2 30.8 -53.5 34.6 -51.8C38.4 -50 42.5 -48.3 45.4 -45.4C48.3 -42.5 50.1 -38.5 51.9 -34.7C53.6 -30.9 55.4 -27.3 57.2 -23.7C59 -20 60.8 -16.3 62 -12.3C63.2 -8.4 63.7 -4.2 64.2 0L0 0Z" fill="#00d1ff"></path>

</g> -->
</svg>